<svg width="27" height="27" viewBox="0 0 27 27" fill="none" xmlns="http://www.w3.org/2000/svg">
<g clip-path="url(#clip0_83_198)">
<path d="M4.7375 7.3125V7.32575L4.74095 7.33854L7.44037 17.3489C7.67828 18.4139 8.73754 19.1125 9.7875 19.1125H21.4875C22.551 19.1125 23.4826 18.2896 23.8311 17.3601L23.8316 17.3603L23.8341 17.351L26.5341 7.33854L26.5375 7.32575V7.3125V7.31064C26.5375 7.25479 26.5375 7.16364 26.5221 7.07106C26.5069 6.97975 26.4741 6.87021 26.3957 6.79179L26.3925 6.78863C26.2796 6.67564 26.1415 6.5375 25.875 6.5375H5.4C5.13353 6.5375 4.99541 6.67564 4.88245 6.78862L4.87929 6.79179C4.73726 6.93381 4.73736 7.08626 4.73749 7.29332C4.7375 7.29966 4.7375 7.30606 4.7375 7.3125ZM8.64806 16.8554L8.64826 16.8553L8.64658 16.8491L6.20537 7.75H25.0696L22.63 16.8433C22.4172 17.3703 22.0015 17.675 21.4875 17.675H9.7875C9.25738 17.675 8.7485 17.3576 8.64806 16.8554ZM4.2911 5.53909L4.31829 5.63767L4.41623 5.60828L5.54123 5.27078L5.63538 5.24254L5.60877 5.14793L4.59627 1.54793L4.59637 1.54789L4.59487 1.54338C4.5332 1.35838 4.4377 1.2268 4.31906 1.14206C4.20066 1.05749 4.06682 1.025 3.9375 1.025H0.5625H0.4625V1.125V2.25V2.35H0.5625H3.41135L4.2911 5.53909ZM6.9875 23.175C6.9875 24.6927 8.26977 25.975 9.7875 25.975C11.3052 25.975 12.5875 24.6927 12.5875 23.175C12.5875 21.6573 11.3052 20.375 9.7875 20.375C8.26977 20.375 6.9875 21.6573 6.9875 23.175ZM8.3125 23.175C8.3125 22.3302 8.94273 21.7 9.7875 21.7C10.6277 21.7 11.2625 22.4381 11.2625 23.175C11.2625 24.0198 10.6323 24.65 9.7875 24.65C8.94273 24.65 8.3125 24.0198 8.3125 23.175ZM18.6875 23.175C18.6875 24.6927 19.9698 25.975 21.4875 25.975C23.0052 25.975 24.2875 24.6927 24.2875 23.175C24.2875 21.6573 23.0052 20.375 21.4875 20.375C19.9698 20.375 18.6875 21.6573 18.6875 23.175ZM20.0125 23.175C20.0125 22.3302 20.6427 21.7 21.4875 21.7C21.8487 21.7 22.2183 21.8816 22.4996 22.1629C22.7809 22.4442 22.9625 22.8138 22.9625 23.175C22.9625 24.0198 22.3323 24.65 21.4875 24.65C20.6427 24.65 20.0125 24.0198 20.0125 23.175Z" fill="#2D3043" stroke="#2D3043" stroke-width="0.2"/>
</g>
<defs>
<clipPath id="clip0_83_198">
<rect width="27" height="27" fill="white"/>
</clipPath>
</defs>
</svg>
