<svg width="20" height="20" viewBox="0 0 20 20" fill="none" xmlns="http://www.w3.org/2000/svg">
<g clip-path="url(#clip0_83_10)">
<path d="M10 4.23828C9.41406 4.23828 8.86719 4.34896 8.35938 4.57031C7.85156 4.79167 7.40885 5.09115 7.03125 5.46875C6.65365 5.84635 6.35417 6.28906 6.13281 6.79688C5.91146 7.30469 5.80078 7.84505 5.80078 8.41797C5.80078 8.99089 5.91146 9.53125 6.13281 10.0391C6.35417 10.5469 6.65365 10.9928 7.03125 11.377C7.40885 11.7611 7.85156 12.0573 8.35938 12.2656C8.86719 12.487 9.41406 12.5977 10 12.5977C10.5729 12.5977 11.1133 12.4935 11.6211 12.2852C12.1289 12.0638 12.5716 11.7611 12.9492 11.377C13.3268 10.9928 13.6263 10.5469 13.8477 10.0391C14.069 9.53125 14.1797 8.99089 14.1797 8.41797C14.1797 7.84505 14.069 7.30469 13.8477 6.79688C13.6263 6.28906 13.3268 5.84635 12.9492 5.46875C12.5716 5.09115 12.1289 4.79167 11.6211 4.57031C11.1133 4.34896 10.5729 4.23828 10 4.23828ZM10 11.6016C9.11458 11.6016 8.36263 11.2891 7.74414 10.6641C7.12565 10.0391 6.81641 9.29036 6.81641 8.41797C6.81641 7.54557 7.12565 6.79688 7.74414 6.17188C8.36263 5.54688 9.11458 5.23438 10 5.23438C10.8724 5.23438 11.6178 5.54688 12.2363 6.17188C12.8548 6.79688 13.1641 7.54557 13.1641 8.41797C13.1641 9.29036 12.8548 10.0391 12.2363 10.6641C11.6178 11.2891 10.8724 11.6016 10 11.6016ZM10 0.253906C9.94792 0.253906 9.89909 0.253906 9.85352 0.253906C9.80794 0.253906 9.75911 0.253906 9.70703 0.253906C8.70443 0.292969 7.75391 0.501303 6.85547 0.878906C5.95703 1.26953 5.15951 1.79037 4.46289 2.44141C3.76628 3.09245 3.19661 3.85417 2.75391 4.72656C2.3112 5.59896 2.04427 6.53646 1.95312 7.53906C1.91406 7.92969 1.9043 8.32031 1.92383 8.71094C1.94336 9.10156 1.98568 9.47917 2.05078 9.84375C2.05078 9.84375 2.05729 9.86654 2.07031 9.91211C2.08333 9.95768 2.09635 10.026 2.10938 10.1172C2.17448 10.3906 2.2526 10.6608 2.34375 10.9277C2.4349 11.1947 2.53906 11.4518 2.65625 11.6992C2.86458 12.194 3.13802 12.7474 3.47656 13.3594C3.82812 13.9844 4.26758 14.6484 4.79492 15.3516C5.32227 16.0547 5.95052 16.7969 6.67969 17.5781C7.40885 18.3594 8.26823 19.1602 9.25781 19.9805C9.36198 20.0716 9.47917 20.14 9.60938 20.1855C9.73958 20.2311 9.86979 20.2539 10 20.2539C10.1432 20.2539 10.2767 20.2311 10.4004 20.1855C10.5241 20.14 10.638 20.0716 10.7422 19.9805C11.7318 19.1602 12.5911 18.3594 13.3203 17.5781C14.0625 16.7969 14.694 16.0547 15.2148 15.3516C15.7357 14.6484 16.1719 13.9909 16.5234 13.3789C16.862 12.7669 17.1354 12.2135 17.3438 11.7188C17.4609 11.4583 17.5651 11.1947 17.6562 10.9277C17.7474 10.6608 17.8255 10.3906 17.8906 10.1172C17.9036 10.0651 17.9134 10.0195 17.9199 9.98047C17.9264 9.94141 17.9362 9.90234 17.9492 9.86328C17.9883 9.60286 18.0208 9.3457 18.0469 9.0918C18.0729 8.83789 18.0859 8.58073 18.0859 8.32031C18.0859 7.21354 17.8711 6.17188 17.4414 5.19531C17.0117 4.20573 16.4323 3.34635 15.7031 2.61719C14.974 1.88802 14.1211 1.30859 13.1445 0.878906C12.1549 0.46224 11.1068 0.253906 10 0.253906ZM16.9336 9.6875C16.9336 9.6875 16.9303 9.70703 16.9238 9.74609C16.9173 9.78516 16.9076 9.83073 16.8945 9.88281C16.8424 10.1302 16.7773 10.3711 16.6992 10.6055C16.6211 10.8398 16.5299 11.0742 16.4258 11.3086C16.2174 11.7773 15.9505 12.3047 15.625 12.8906C15.2995 13.4766 14.8861 14.1048 14.3848 14.7754C13.8835 15.446 13.2812 16.1589 12.5781 16.9141C11.875 17.6562 11.0482 18.418 10.0977 19.1992C10.0846 19.2122 10.0684 19.222 10.0488 19.2285C10.0293 19.235 10.013 19.2383 10 19.2383C9.98698 19.2383 9.9707 19.235 9.95117 19.2285C9.93164 19.222 9.91536 19.2122 9.90234 19.1992C8.95182 18.418 8.125 17.6562 7.42188 16.9141C6.71875 16.1589 6.11328 15.446 5.60547 14.7754C5.09766 14.1048 4.68099 13.4766 4.35547 12.8906C4.02995 12.2917 3.76953 11.7578 3.57422 11.2891C3.47005 11.0677 3.37891 10.8398 3.30078 10.6055C3.22266 10.3711 3.15104 10.1302 3.08594 9.88281C3.07292 9.83073 3.06315 9.78841 3.05664 9.75586C3.05013 9.72331 3.04688 9.70703 3.04688 9.70703C3.04688 9.69401 3.04688 9.6875 3.04688 9.6875C3.04688 9.6875 3.04688 9.68099 3.04688 9.66797C2.98177 9.34245 2.94271 9.00716 2.92969 8.66211C2.91667 8.31706 2.92318 7.97526 2.94922 7.63672C3.04036 6.76432 3.27474 5.94401 3.65234 5.17578C4.04297 4.40755 4.54102 3.74023 5.14648 3.17383C5.75195 2.60742 6.45182 2.15495 7.24609 1.81641C8.02734 1.47787 8.86068 1.28906 9.74609 1.25C10.7487 1.22396 11.6927 1.38672 12.5781 1.73828C13.4766 2.10287 14.2578 2.60742 14.9219 3.25195C15.5859 3.89648 16.1068 4.65495 16.4844 5.52734C16.875 6.39974 17.0703 7.33724 17.0703 8.33984C17.0703 8.5612 17.0605 8.78255 17.041 9.00391C17.0215 9.22526 16.9857 9.45312 16.9336 9.6875Z" fill="#F1D7D8"/>
</g>
<defs>
<clipPath id="clip0_83_10">
<rect width="20" height="20" fill="white" transform="matrix(1 0 0 -1 0 20)"/>
</clipPath>
</defs>
</svg>
