<svg width="21" height="20" viewBox="0 0 21 20" fill="none" xmlns="http://www.w3.org/2000/svg">
<g clip-path="url(#clip0_83_14)">
<path d="M16.1362 20C15.2508 20 14.3394 19.8763 13.4019 19.6289C12.4644 19.3815 11.5073 19.0104 10.5308 18.5156C10.0881 18.2812 9.64534 18.0273 9.20264 17.7539C8.75993 17.4805 8.32373 17.1842 7.89404 16.8652C7.46436 16.5462 7.04118 16.2044 6.62451 15.8398C6.20785 15.4883 5.8042 15.1172 5.41357 14.7266C5.02295 14.3359 4.65186 13.9323 4.30029 13.5156C3.94873 13.099 3.61344 12.6758 3.29443 12.2461C2.97542 11.8164 2.6792 11.3802 2.40576 10.9375C2.1193 10.4948 1.8654 10.0521 1.64404 9.60938C1.14925 8.63281 0.778158 7.67578 0.530762 6.73828C0.283366 5.80078 0.159668 4.88932 0.159668 4.00391C0.159668 3.43099 0.35498 2.89388 0.745605 2.39258C1.13623 1.89128 1.44873 1.53646 1.68311 1.32812C2.00863 1.01562 2.40576 0.716146 2.87451 0.429688C3.34326 0.143229 3.76644 0 4.14404 0C4.32633 0 4.53141 0.0618496 4.75928 0.185547C4.98714 0.309244 5.2443 0.507812 5.53076 0.78125C5.7391 0.976562 5.96045 1.20443 6.19482 1.46484C6.4292 1.72526 6.67008 2.01172 6.91748 2.32422C7.06071 2.50651 7.38298 2.96875 7.88428 3.71094C8.38558 4.45312 8.63623 5.05208 8.63623 5.50781C8.63623 5.8724 8.46045 6.19466 8.10889 6.47461C7.75732 6.75456 7.35368 7.03776 6.89795 7.32422C6.72868 7.42839 6.55941 7.53255 6.39014 7.63672C6.22087 7.74089 6.07113 7.84505 5.94092 7.94922C5.79769 8.06641 5.70654 8.1543 5.66748 8.21289C5.62842 8.27148 5.60889 8.30729 5.60889 8.32031C5.84326 8.90625 6.18831 9.51823 6.64404 10.1562C7.09977 10.7943 7.6141 11.3965 8.18701 11.9629C8.75993 12.5293 9.35889 13.0404 9.98389 13.4961C10.6219 13.9518 11.2339 14.2969 11.8198 14.5312C11.8328 14.5312 11.8687 14.5117 11.9272 14.4727C11.9858 14.4336 12.0737 14.3424 12.1909 14.1992C12.2951 14.069 12.3993 13.9193 12.5034 13.75C12.6076 13.5807 12.7118 13.4115 12.8159 13.2422C13.1024 12.7865 13.3856 12.3828 13.6655 12.0312C13.9455 11.6797 14.2677 11.5039 14.6323 11.5039C15.0881 11.5039 15.687 11.7546 16.4292 12.2559C17.1714 12.7572 17.6336 13.0794 17.8159 13.2227C18.1284 13.4701 18.4149 13.7109 18.6753 13.9453C18.9357 14.1797 19.1636 14.401 19.3589 14.6094C19.6323 14.8958 19.8309 15.153 19.9546 15.3809C20.0783 15.6087 20.1401 15.8138 20.1401 15.9961C20.1401 16.3737 19.9969 16.7969 19.7104 17.2656C19.424 17.7344 19.1245 18.1315 18.812 18.457C18.6037 18.6914 18.2489 19.0072 17.7476 19.4043C17.2463 19.8014 16.7091 20 16.1362 20ZM4.12451 0.996094C3.9943 0.996094 3.76644 1.08398 3.44092 1.25977C3.1154 1.43555 2.75732 1.69922 2.3667 2.05078C1.9891 2.40234 1.69287 2.75065 1.47803 3.0957C1.26318 3.44076 1.15576 3.74349 1.15576 4.00391C1.15576 5.68359 1.618 7.40885 2.54248 9.17969C3.47998 10.9505 4.67464 12.5651 6.12646 14.0234C7.57829 15.4818 9.18962 16.6732 10.9604 17.5977C12.7313 18.5352 14.4565 19.0039 16.1362 19.0039C16.3966 19.0039 16.6994 18.8932 17.0444 18.6719C17.3895 18.4505 17.7378 18.1576 18.0894 17.793C18.4409 17.3893 18.7046 17.0247 18.8804 16.6992C19.0562 16.3737 19.144 16.1458 19.144 16.0156C19.131 15.9115 18.9748 15.6836 18.6753 15.332C18.3758 14.9805 17.868 14.5247 17.1519 13.9648C16.5269 13.4961 15.9865 13.1348 15.5308 12.8809C15.075 12.627 14.7821 12.5 14.6519 12.5C14.6388 12.5 14.603 12.5195 14.5444 12.5586C14.4858 12.5977 14.3979 12.6888 14.2808 12.832C14.1896 12.9622 14.092 13.1087 13.9878 13.2715C13.8836 13.4342 13.7795 13.6003 13.6753 13.7695C13.4019 14.2253 13.1187 14.6322 12.8257 14.9902C12.5327 15.3483 12.1974 15.5273 11.8198 15.5273C11.7547 15.5273 11.6929 15.5241 11.6343 15.5176C11.5757 15.5111 11.5138 15.4948 11.4487 15.4688C10.7977 15.2083 10.1271 14.8307 9.43701 14.3359C8.74691 13.8411 8.09261 13.2845 7.47412 12.666C6.85563 12.0475 6.29899 11.3932 5.8042 10.7031C5.30941 10.013 4.9318 9.34245 4.67139 8.69141C4.60628 8.53516 4.59326 8.33659 4.63232 8.0957C4.67139 7.85482 4.84717 7.59766 5.15967 7.32422C5.31592 7.16797 5.50146 7.01823 5.71631 6.875C5.93115 6.73177 6.14925 6.59505 6.37061 6.46484C6.53988 6.36068 6.70589 6.25651 6.86865 6.15234C7.03141 6.04818 7.1779 5.95052 7.30811 5.85938C7.45133 5.74219 7.54248 5.6543 7.58154 5.5957C7.62061 5.53711 7.64014 5.5013 7.64014 5.48828C7.64014 5.35807 7.51318 5.0651 7.25928 4.60938C7.00537 4.15365 6.64404 3.61328 6.17529 2.98828C5.6154 2.27213 5.15967 1.76432 4.80811 1.46484C4.45654 1.16537 4.22868 1.00912 4.12451 0.996094Z" fill="#F1D7D8"/>
</g>
<defs>
<clipPath id="clip0_83_14">
<rect width="20" height="20" fill="white" transform="matrix(1 0 0 -1 0.140137 20)"/>
</clipPath>
</defs>
</svg>
