<svg width="33" height="33" viewBox="0 0 33 33" fill="none" xmlns="http://www.w3.org/2000/svg">
<g clip-path="url(#clip0_83_41)">
<path d="M30.4688 9.91724C29.9271 8.8339 29.25 7.82349 28.4375 6.88599C27.625 5.94849 26.7292 5.11515 25.75 4.38599C25.6042 4.28182 25.4427 4.24015 25.2656 4.26099C25.0885 4.28182 24.9479 4.36515 24.8438 4.51099C24.7396 4.65682 24.6979 4.81828 24.7188 4.99536C24.7396 5.17245 24.8229 5.31307 24.9688 5.41724C25.8854 6.0839 26.7135 6.85474 27.4531 7.72974C28.1927 8.60474 28.8125 9.54224 29.3125 10.5422C29.8542 11.5839 30.2604 12.6672 30.5312 13.7922C30.8021 14.9172 30.9375 16.0735 30.9375 17.261C30.9375 19.2818 30.5521 21.1881 29.7812 22.9797C29.0104 24.7506 27.9635 26.3027 26.6406 27.636C25.3177 28.9693 23.7604 30.0214 21.9688 30.7922C20.1771 31.5631 18.2708 31.9485 16.25 31.9485C14.2292 31.9485 12.3229 31.5631 10.5312 30.7922C8.73958 30.0214 7.18229 28.9693 5.85938 27.636C4.53646 26.3027 3.48958 24.7506 2.71875 22.9797C1.94792 21.1881 1.5625 19.2818 1.5625 17.261C1.5625 15.2402 1.94792 13.3339 2.71875 11.5422C3.48958 9.75057 4.53646 8.18807 5.85938 6.85474C7.18229 5.5214 8.73958 4.46932 10.5312 3.69849C12.3229 2.92765 14.2292 2.54224 16.25 2.54224C16.4375 2.54224 16.5938 2.47974 16.7188 2.35474C16.8438 2.22974 16.9062 2.0839 16.9062 1.91724C16.9062 1.72974 16.8438 1.57349 16.7188 1.44849C16.5938 1.32349 16.4375 1.26099 16.25 1.26099C14.0417 1.26099 11.9688 1.67765 10.0312 2.51099C8.09375 3.34432 6.40104 4.48495 4.95312 5.93286C3.50521 7.38078 2.35417 9.0839 1.5 11.0422C0.666667 12.9797 0.25 15.0527 0.25 17.261C0.25 19.4693 0.666667 21.5422 1.5 23.4797C2.35417 25.4172 3.50521 27.1099 4.95312 28.5579C6.40104 30.0058 8.09375 31.1568 10.0312 32.011C11.9688 32.8443 14.0417 33.261 16.25 33.261C18.4583 33.261 20.5312 32.8443 22.4688 32.011C24.4062 31.1568 26.099 30.0058 27.5469 28.5579C28.9948 27.1099 30.1458 25.4172 31 23.4797C31.8333 21.5422 32.25 19.4693 32.25 17.261C32.25 15.9902 32.099 14.7297 31.7969 13.4797C31.4948 12.2297 31.0521 11.0422 30.4688 9.91724ZM12.1562 9.82349C12.0521 9.88599 11.9688 9.96411 11.9062 10.0579C11.8438 10.1516 11.8125 10.261 11.8125 10.386V24.6985C11.8125 24.8652 11.8802 25.011 12.0156 25.136C12.151 25.261 12.3021 25.3235 12.4688 25.3235C12.6562 25.3235 12.8125 25.261 12.9375 25.136C13.0625 25.011 13.125 24.8652 13.125 24.6985V11.5422L22.7812 17.261L15.6875 21.8547C15.5417 21.9381 15.4479 22.0683 15.4062 22.2454C15.3646 22.4224 15.3958 22.5839 15.5 22.7297C15.5833 22.8964 15.7135 22.9954 15.8906 23.0266C16.0677 23.0579 16.2292 23.0318 16.375 22.9485L24.375 17.7922C24.4583 17.7297 24.526 17.6516 24.5781 17.5579C24.6302 17.4641 24.6562 17.3547 24.6562 17.2297C24.6562 17.1256 24.6302 17.0266 24.5781 16.9329C24.526 16.8391 24.4479 16.761 24.3438 16.6985L12.8125 9.82349C12.7083 9.76099 12.599 9.72974 12.4844 9.72974C12.3698 9.72974 12.2604 9.76099 12.1562 9.82349Z" fill="#F9F0F0"/>
</g>
<defs>
<clipPath id="clip0_83_41">
<rect width="32" height="32" fill="white" transform="matrix(1 0 0 -1 0.25 32.8547)"/>
</clipPath>
</defs>
</svg>
