<svg width="24" height="24" viewBox="0 0 24 24" fill="none" xmlns="http://www.w3.org/2000/svg">
<path d="M23.2031 21.9248L17.6719 16.417C18.3594 15.5732 18.8984 14.6279 19.2891 13.5811C19.6797 12.5342 19.875 11.4326 19.875 10.2764C19.875 8.93262 19.625 7.6748 19.125 6.50293C18.6094 5.33105 17.9141 4.30762 17.0391 3.43262C16.1641 2.55762 15.1406 1.8623 13.9688 1.34668C12.7969 0.84668 11.5391 0.59668 10.1953 0.59668C8.85156 0.59668 7.59375 0.84668 6.42188 1.34668C5.25 1.8623 4.22656 2.55762 3.35156 3.43262C2.47656 4.30762 1.78125 5.33105 1.26562 6.50293C0.765625 7.6748 0.515625 8.93262 0.515625 10.2764C0.515625 11.6045 0.765625 12.8623 1.26562 14.0498C1.78125 15.2217 2.47656 16.2451 3.35156 17.1201C4.22656 17.9951 5.25 18.6826 6.42188 19.1826C7.59375 19.6982 8.85156 19.9561 10.1953 19.9561C11.3672 19.9561 12.4727 19.7607 13.5117 19.3701C14.5508 18.9795 15.4922 18.4404 16.3359 17.7529L21.8438 23.2842C22.0312 23.4717 22.2578 23.5654 22.5234 23.5654C22.7891 23.5654 23.0156 23.4717 23.2031 23.2842C23.3906 23.0967 23.4844 22.8701 23.4844 22.6045C23.4844 22.3389 23.3906 22.1123 23.2031 21.9248ZM10.1953 18.0342C9.13281 18.0342 8.125 17.8311 7.17188 17.4248C6.23438 17.0186 5.41406 16.4639 4.71094 15.7607C4.00781 15.0576 3.45312 14.2295 3.04688 13.2764C2.64062 12.3389 2.4375 11.3389 2.4375 10.2764C2.4375 9.19824 2.64062 8.19043 3.04688 7.25293C3.45312 6.31543 4.00781 5.49512 4.71094 4.79199C5.41406 4.08887 6.23438 3.53418 7.17188 3.12793C8.125 2.72168 9.13281 2.51855 10.1953 2.51855C11.2578 2.51855 12.2656 2.72168 13.2188 3.12793C14.1562 3.53418 14.9766 4.08887 15.6797 4.79199C16.3828 5.49512 16.9375 6.31543 17.3438 7.25293C17.75 8.19043 17.9531 9.19824 17.9531 10.2764C17.9531 11.3389 17.75 12.3389 17.3438 13.2764C16.9375 14.2295 16.3828 15.0576 15.6797 15.7607C14.9766 16.4639 14.1562 17.0186 13.2188 17.4248C12.2656 17.8311 11.2578 18.0342 10.1953 18.0342Z" fill="#2D3043"/>
</svg>
