<svg width="20" height="20" viewBox="0 0 20 20" fill="none" xmlns="http://www.w3.org/2000/svg">
<path d="M10 0C8.02219 0 6.08879 0.58649 4.4443 1.6853C2.79981 2.78412 1.51809 4.3459 0.761209 6.17317C0.00433288 8.00043 -0.193701 10.0111 0.192152 11.9509C0.578004 13.8907 1.53041 15.6725 2.92894 17.0711C4.32746 18.4696 6.10929 19.422 8.0491 19.8079C9.98891 20.1937 11.9996 19.9957 13.8268 19.2388C15.6541 18.4819 17.2159 17.2002 18.3147 15.5557C19.4135 13.9112 20 11.9778 20 10C20 7.34784 18.9464 4.8043 17.0711 2.92893C15.1957 1.05357 12.6522 0 10 0ZM5.34091 11.7977C5.30452 11.4117 5.30718 11.023 5.34887 10.6375C5.39432 10.1716 5.48296 9.51818 5.93864 9.54545C6.05228 9.54545 7.57728 10.1875 8.69091 10.6466C9.10909 10.8159 9.14546 11.5352 8.65455 11.6852C8.63069 11.6932 5.9875 12.5716 5.82728 12.5716C5.45455 12.55 5.37273 12.1705 5.34091 11.7977ZM9.99319 15.9625C9.96563 16.036 9.91862 16.1006 9.85717 16.1495C9.79572 16.1983 9.72214 16.2295 9.64432 16.2398C9.39811 16.2822 8.98144 16.1939 8.39432 15.975C7.85682 15.7739 7.00909 15.4409 7.18978 14.9205C7.25796 14.75 8.44546 13.3625 9.07728 12.5989C9.37046 12.2227 10.05 12.4625 10.0295 12.9489C10.033 13.0682 10.0375 15.8352 9.99091 15.9625H9.99319ZM8.91364 9.21591L6.31705 5.04886C6.29849 4.97204 6.30071 4.89166 6.32348 4.81597C6.34624 4.74029 6.38874 4.67202 6.44659 4.61818C6.82728 4.20455 8.87387 3.63636 9.41364 3.77273C9.49473 3.78593 9.5702 3.82254 9.63077 3.87806C9.69133 3.93358 9.73436 4.00559 9.75455 4.08523C9.78637 4.29091 10.0352 8.23636 10.0693 8.85795C10.1136 9.80909 9.44432 10.0636 8.91364 9.21591ZM10.9886 9.9125C11.0784 9.82159 12.5977 7.62159 12.7659 7.50795C12.8314 7.46385 12.908 7.43898 12.9869 7.43616C13.0659 7.43335 13.144 7.45271 13.2125 7.49205C13.667 7.71023 14.5591 9.05682 14.6148 9.59091C14.6263 9.67337 14.6153 9.75741 14.5832 9.83419C14.551 9.91097 14.4987 9.97767 14.4318 10.0273C14.2943 10.1182 11.725 10.7261 11.5477 10.7864L11.5545 10.7716C11.1159 10.8875 10.6932 10.3125 10.9886 9.9125ZM14.6795 13.2682C14.6136 13.7795 13.5932 15.0864 13.1216 15.2773C13.0524 15.3112 12.9749 15.3245 12.8983 15.3156C12.8218 15.3068 12.7494 15.2761 12.6898 15.2273C12.567 15.1409 11.1807 12.8193 11.0989 12.6909C10.8318 12.2898 11.2648 11.7034 11.7239 11.867C11.7239 11.867 14.4227 12.7534 14.525 12.8443C14.5881 12.8933 14.636 12.959 14.6634 13.034C14.6907 13.109 14.6963 13.1901 14.6795 13.2682Z" fill="#F1D7D8"/>
</svg>
